<?xml version="1.0" encoding="utf-8"?>
<!-- Generator: Adobe Illustrator 23.0.3, SVG Export Plug-In . SVG Version: 6.00 Build 0)  -->
<svg version="1.1" id="圖層_1" xmlns="http://www.w3.org/2000/svg" xmlns:xlink="http://www.w3.org/1999/xlink" x="0px" y="0px"
	 viewBox="0 0 2500 2500" style="enable-background:new 0 0 2500 2500;" xml:space="preserve">
<style type="text/css">
	.st0{fill-rule:evenodd;clip-rule:evenodd;fill:#ECF0F1;}
</style>
<path class="st0" d="M402.3,952.8h255.3v295.6l-255.3-144.2V952.8z M36.8,1251.8l255.2,145v150.4H36.8V1251.8z M36.8,1084.1
	l620.8,350.7v148.6L36.8,1231.8V1084.1z M36.8,916.2l620.8,350.7v148.7L36.8,1063.9V916.2z M2463.2,916.4v331.9l-286.7-161.9
	L2463.2,916.4z M1842.4,1251.9l286.9,162.9l-286.9,169V1251.9z M1842.4,1084.1l620.8,350.7v148.6l-620.8-351.7L1842.4,1084.1
	L1842.4,1084.1z M1842.4,916.2l620.8,350.7v148.7l-620.8-351.7L1842.4,916.2L1842.4,916.2z M1456.3,1190.8h298.3l-0.7,356.4h-298.3
	L1456.3,1190.8L1456.3,1190.8z M1455.5,952.8h298.3l0.2,101.7h-298.3L1455.5,952.8z M1455.8,1072h298.3v101.7h-298.3V1072
	L1455.8,1072z M1112.2,1171.2l-288.9-163.5c-26,23.5-49,51.5-66.5,82.1l355.4,201.6v19.5l-363.6-205.8
	c-16.4,32.4-27.2,67.4-31.9,103.4l395.5,223.6v19.5l-397.5-224.8c-0.8,8.4-1.2,16.8-1.2,25.2c0,180.8,147.2,328,327.7,328
	s328-147.2,328-328s-147.4-327.7-328-327.7c-74,0.1-145.9,25.2-203.8,71.2l274.8,156.1V1171.2L1112.2,1171.2z"/>
</svg>
